<svg xmlns="http://www.w3.org/2000/svg" viewBox="0 0 64 64" role="img" aria-label="Starfall Aegis favicon">
  <defs>
    <linearGradient id="bg" x1="0" y1="0" x2="1" y2="1">
      <stop offset="0%" stop-color="#0f1c35" />
      <stop offset="100%" stop-color="#050914" />
    </linearGradient>
    <linearGradient id="ring" x1="0" y1="0" x2="1" y2="1">
      <stop offset="0%" stop-color="#6ef2ff" />
      <stop offset="100%" stop-color="#b592ff" />
    </linearGradient>
    <linearGradient id="ship" x1="0" y1="0" x2="0" y2="1">
      <stop offset="0%" stop-color="#d6f8ff" />
      <stop offset="100%" stop-color="#77a8ff" />
    </linearGradient>
    <filter id="glow" x="-30%" y="-30%" width="160%" height="160%">
      <feDropShadow dx="0" dy="0" stdDeviation="1.4" flood-color="#6ef2ff" flood-opacity="0.7" />
    </filter>
  </defs>

  <rect width="64" height="64" rx="16" fill="url(#bg)" />
  <circle cx="32" cy="32" r="24" fill="none" stroke="#6ef2ff" stroke-opacity="0.12" stroke-width="7" />
  <path
    d="M32 10L49 17V30C49 42.2 41.9 50.4 32 54C22.1 50.4 15 42.2 15 30V17L32 10Z"
    fill="none"
    stroke="url(#ring)"
    stroke-width="3"
    stroke-linejoin="round"
    filter="url(#glow)"
  />
  <path
    d="M32 16L43 39L32 32L21 39Z"
    fill="url(#ship)"
    stroke="#dffcff"
    stroke-width="1.2"
    stroke-linejoin="round"
  />
  <path d="M32 21L36.5 30L32 34L27.5 30Z" fill="#dffcff" />
  <rect x="22" y="39" width="7" height="4" rx="1.5" fill="#6ef2ff" fill-opacity="0.9" />
  <rect x="35" y="39" width="7" height="4" rx="1.5" fill="#6ef2ff" fill-opacity="0.9" />
</svg>
